<?xml version="1.0" encoding="utf-8"?>
<!-- Generator: Adobe Illustrator 18.1.0, SVG Export Plug-In . SVG Version: 6.00 Build 0)  -->
<!DOCTYPE svg PUBLIC "-//W3C//DTD SVG 1.1//EN" "http://www.w3.org/Graphics/SVG/1.1/DTD/svg11.dtd">
<svg version="1.1" id="Layer_1" xmlns="http://www.w3.org/2000/svg" xmlns:xlink="http://www.w3.org/1999/xlink" x="0px" y="0px"
	 viewBox="0 0 440 167" enable-background="new 0 0 440 167" xml:space="preserve">
<g>
	<defs>
		<path id="SVGID_1_" d="M64.9,96.8c0.4,0.4,0.2,0.4,0.1,0.6c0.7-0.2,1.6-0.6,2.5-0.4c-0.2-0.4-0.4-0.8,0.1-0.8
			c0.9,0.2,2,0.4,2.8,0.2c-0.7-0.6,0.6-0.6-0.2-1C68.4,95.8,66.2,96,64.9,96.8 M74.6,92.1C74.6,92,74.6,92,74.6,92.1
			C74.6,92,74.6,92,74.6,92.1 M132.4,66.2c1.4-1.5,2.1-3.3,2.3-5.6c1.4-0.6,1.7-1.9,1.5-3.7c-0.3-0.2-0.7-0.2-0.7-0.2
			C135.2,60.4,132.6,62.5,132.4,66.2 M101.8,84.1c0.9,0.6,0.2,1.9-0.2,2.5c-2.7,0-5.8,0-7,1.5c-2.8-0.4-4.3,0.2-5.7,0.8
			c-1.3,0.5-2.5,1.1-4.8,0.9c-0.6,0-0.3,0.6-0.6,0.6c-1.8-0.3-3.2,0.1-4.4,0.5c-1.3,0.4-2.4,0.8-3.8,0.5C75,92,76,92.9,75.7,93.5
			c-0.9,0.4-1,0.6-2.2,0.6c0.1-0.2-0.3-0.6-0.5-1h0.8c0.6,0,0.6-0.9,0.8-1c-0.5,0.2-1.4,0-2.4,0l-1.2,1c-0.5-0.2-1.1-0.2-1.3-0.2
			c-1.2,0-1.5,1.2-3.1,0c0.1-0.8,0.3-0.8,0.5-1.2c3.1,0.4,5.5-0.2,6.6-1.5c3.3-0.4,6.8-2.1,11-2.7c0.6,0,0,0.4,0.1,0.6
			c0.8,0.3,1.1,0,1.5-0.4c0.4-0.4,0.7-0.7,1.8-0.3c2.1-1.9,5.8-1.9,9-2.1c0.3,0.1,0.4,0,0.6,0c0.2-0.1,0.4-0.2,0.9,0.2
			c0.6-0.6,1.2-1,3-0.6C101.9,84.8,101.6,84.1,101.8,84.1 M56,79.1c-1.7,1.6-3.3,3.1-6,3.9C51.9,81.6,53.7,80.1,56,79.1 M67.3,79.3
			c0.3-0.2,0.6,0,0.9-0.2c0.5-0.7,1.1-1.2,1.7-1.8c-0.3,2.2-3.9,3.3-4.4,5.9c-2.6,0.6-3.5,3.3-6.2,3.3
			C60.7,83.3,65.6,82.7,67.3,79.3 M80,72.5c0,0,0.6,0,0.9,0.6c-1.4,0.2-2.1,1.2-3.4,1.7C77.5,73.3,79.3,73.3,80,72.5 M71.3,74.8
			c0.6,0,0.8,0,1.5-0.4c0.7-1.2,3.2-1.7,4.1-2.9c0,1.9-2.9,2.3-3.7,4C71.9,76,71.1,77,70,77.2C70.6,76.6,71.1,75.9,71.3,74.8
			 M129.5,76c0.6-2.5,1.1-5,2.9-6.7c2.6-0.2,5.9-0.6,9.1,1c4-0.2,7.6,0.4,12.2,1c-0.1,0.4-0.5,0.4-0.9,0.4c-0.2,0-0.4,0-0.6,0.1
			c1.9,0.6,3.4,1.2,5.3,1.7c-1.3,1.2-3.3,1-5,1.2c-2.6,0.2-5.2,0.8-8.1,0.8c-3.7,0.2-7.1,0.6-10.8,0.6
			C132.3,76.2,130.9,76.2,129.5,76 M129.4,56.5l0.1,0.2c0,1.5-0.2,2.9-1.5,3.7c-0.1,1.2-0.1,2.5-1.3,3.1
			C127.1,60.6,128.5,58.8,129.4,56.5 M69.2,82.3c0.4-0.4,0.5-1.2,1.1-1.2c0.2-1,1.2-1.5,1.7-1.9c1.1-0.8,3-1.2,4.5-2.1
			c1.6-1,3.3-2.3,4.5-3.3c1.3-1.2,3.7-1.9,5-3.1c3.4-1.2,5.9-4.4,9.2-6.9c3.6-2.7,7.4-5.2,10.4-8.3c0.8-1,1.6-1.5,3.1-1.9
			c1.7-0.8,2.5-1.9,4.5-2.5l0.1,0.2c0.9,1.7-0.1,2.7-0.5,4c-3.2,7.3-5.2,15-8.6,22.5c-0.3,0.8-0.2,3.7-1.2,4
			c-0.7,0.8-3.9,0.6-5.2,0.8c-5.2,0.8-11.1,1-16,2.1c0.1-1.2,1.9-0.8,2.9-1l4.8-0.8c2.1-0.4,3.3-1,5.4-1.5c1.6-0.2,3.7,0,4.3-1
			c-1.1-0.2-2,0-2.8,0.3c-0.7,0.2-1.5,0.4-2.3,0.3c-0.8,0-1.3-0.2-1.9-0.2c-1.2,0-2.7,0.4-4.8,0.8c-1.6,0.2-3.1,0.4-4.2,0.8
			c-1.4,0-2.1,0.4-4,0.4c-2.1,0-4.1,1-6.3,1.2c-0.3-0.2-0.9-0.2-1.9,0c-1.5,0.4-3.8,1.2-6.3,1.2C65.5,83.3,68.2,83.3,69.2,82.3
			 M131.1,50c1,0,0.8-0.6,1.4-1h0.2c0,2.3-0.9,3.5-2.1,4.6C131.1,52.5,130.2,50.8,131.1,50 M135,50c-0.1-1.7,0.6-2.3,1.2-2.9
			c0.4,0,0.5,0.2,0.5,0.2c0,1,0.2,1.5,0.5,2.1c-1,0.6-0.9,2.1-1.8,2.9c-1.5,3.7-3.7,7.5-4.6,11.6c-0.1,0.2-0.5,0.8-1.1,0.8
			c-0.5,1.2,0.2,2.7-1.6,2.9C130,61.7,132.8,55.8,135,50 M136.9,0.1c-0.3,0.6,0,1.9-0.6,2.3c-0.5,0.8-0.2,1.9-1.2,1.9
			c0.3,1.7-1.3,1.2-1.6,2.5c-0.4,1.9-3,3.5-4.4,5.8c-5,5.4-10.9,10.8-16.6,15.2c-1.3,0.8-1.7,1.9-2.4,2.9c-1.2,0.6-2.2,1.7-2.8,2.5
			l-6,4.6c-3.5,3.3-6.7,6.9-10.5,10.4c-3.4,3.5-7.8,6.2-11.6,9.4c-3,2.7-6,4.8-8.9,7.1l-2.8,2.5c-0.4,0.4-0.6,0.6-0.2,1.5
			c-0.8,0.6-2.3,0.8-2.3,2.3c-1.2,0-1,1-2.4,1c-2.6,2.5-5.5,5-8.4,6.9c-1.4,1-2.6,2.7-3.9,3.3c-2.2,1.7-5.1,3.1-7,5.4
			c2.6-1,4.7-2.6,6.6-4.2c-2,2.4-5.1,4.2-8.6,6.2c0.2-1,1.6-1.5,2-2.1c-5.3,1.7-8.2,5.4-13.6,7.9c-3.6,1.2-7.3,3.3-10.9,5
			c-1.4,0.6-2,1.7-3.5,1.9l-2.7,0.4c-0.8,0-2-0.4-2.3,0c-0.1,0.1-0.1,0.2-0.1,0.3v0c0,0.8,1.5,2.1,1.8,2.8c-3.5,0.6-0.8,3.5,1.7,5.4
			c1.2,0.8,4.3,2.3,5.2,2.9c0.5,0.2,2.4,1.2,3.2,1.2c3.9,1.5,5.5-0.2,8.4-1.2c0.8-0.6,1.4-1,2.4-1.2c3.1-1,5.6-3.3,7.9-4.8
			c0.6-0.4,1.6-0.6,2.2-0.6c-0.1-0.6,0.2-1,0.4-1c7.1-3.1,14.3-5.8,20.7-9.2c-0.3-0.6-0.4-0.8,0.2-1l5.1-1.7c1.4-0.6,2.6-1.7,4.6,0
			c-1.2,0.2-2.2,0.2-2.6,0.6c2.5,0,3.5-0.4,4.5-1c0.9-0.2,1.6-0.2,2-0.6c1.1-0.4,2.2-0.6,3.5-1.5c0.6-0.4,2.5,0,2.9-1
			c2.2,0.4,3-0.2,3.6-1.2c4.3,0,7.1-1.7,10.4-2.3c0.5,0.6-0.2,1,0.7,1c0.8,0,1.9-0.4,2.5-0.4c-2,8.3-4,18.3-5.3,27.3l-0.7,7.1
			c-1,2.9-0.6,7.3-0.9,10.8c0.2,5.8,0.4,10.6,2,16.6c3.3,2.3,9.9,9.4,12.9,11.6c2.3,0,5.8,6.2,7.3,5.4c1.2-0.6-0.2-7.7-0.1-9.4
			c0-1.5-0.5-7.3-0.1-8.9c0.2-1.9-0.2-3.7-0.1-5.4c0-0.4,0.6-0.6,0.5-1.2c0-3.3,0.2-6.7,0.8-9.2c0.2-1.9,0.3-3.5,0.2-5.2
			c1-2.1,1.5-3.7,1.1-6c-0.1-2.7,0.9-4.6,0.4-7.1c2-7.7,3.7-15.8,4.9-23.5c2.6-1.2,6.1-1.2,8.9-2.3c2.2-0.6,4.5-0.6,6.3-1.2
			c0.3-0.6,0.7-0.8,1.4-1c2.4-0.2,4.9-0.2,7.1-1.2c0.2,0,0.1-0.2,0.5-0.2c1.7,0,3.4-1.2,6-1c0.6-0.4,1.5-0.3,2.5-0.2
			c0.7,0,1.3,0.1,2,0l1.4-1c1,0,2-0.6,2.8-0.6c3.7-0.4,6.4-1.9,11-1.9c-1.4,0.6-3.7,0-3.7,1.5c2.3,0,5.3-0.2,7.1-0.8
			c1.8,0.8,1.8-0.6,3-0.6h1.4c0.6,0,2.6-0.2,4.3,0c0.6,0-1-0.8-0.4-0.8c1.3,0.2,1.7,0.2,2.3,0c-0.1-2.1-1.2-2.7-2.6-4
			c-0.2,0-0.5-0.6-1.4-1.2c-1.8-1.7-2.5-2.9-3.6-4.4c-2.3,0.8-3.9-1.2-5-1.9c-1-0.4-1.2,0-2.1,0c-0.3-0.2-0.7-0.6-0.9-0.6
			c-3.6-1-8.5-0.6-12-0.6c-9.8-0.6-20.8-0.4-27.5,0.8c-0.3-0.2-0.6-0.8-0.8-1.2c-1,0-0.4,1.5-1.4,1l1.3-3.1c0.2-2.9,2.8-4,2.8-6.9
			c0.3-0.6,0.6-1.5,0.7-1.7l-0.1-1.7c2.9-1.9,3.1-6,5.3-8.1c-0.4-0.4-0.3-1-0.2-1.5c-0.8,0.4-1.3,2.7-2.8,2.1c-0.2-1,1-1.9,0.8-3.7
			c1-0.6,0.9-2.1,0.8-3.7c0.7-1.2,2.6-2.5,1.3-4.2c0.9-1.2,1-3.3,2.5-3.7c0.5-0.2,0.3-0.8,0.6-1.5c1.6-0.6,2-2.1,2.7-2.7
			c0.5-0.2,0.7-0.2,1.2-0.6c0.8,0,1.5-0.8,2.7-1.5c1.5-1.7,2.2-2.9,3.4-4.8c0.4-1,1-2.3,0.8-2.9c0.6-1.5-2.3-4.8-3.4-5.8
			c-1-1.2-2.8-2.7-3.5-4.2c-1.1-2.1-6.5-5.8-8.7-7.1C138.8,0,138.6,0,138.3,0C137.9,0,137.3,0.1,136.9,0.1"/>
	</defs>
	<clipPath id="SVGID_2_">
		<use xlink:href="#SVGID_1_"  overflow="visible"/>
	</clipPath>
	
		<linearGradient id="SVGID_3_" gradientUnits="userSpaceOnUse" x1="1" y1="166.4182" x2="2" y2="166.4182" gradientTransform="matrix(0 -167 -167 0 27890 334)">
		<stop  offset="0" style="stop-color:#559241"/>
		<stop  offset="3.736260e-03" style="stop-color:#559241"/>
		<stop  offset="1" style="stop-color:#68AD44"/>
	</linearGradient>
	<rect x="8.4" clip-path="url(#SVGID_2_)" fill="url(#SVGID_3_)" width="179.6" height="167.8"/>
</g>
<g>
	<defs>
		<path id="SVGID_4_" d="M260.9,93.7c1.4-0.6,1.7-1.2,1.3-2.7c-0.3,0-0.5-0.1-0.7-0.1C259.9,90.9,260.5,92.4,260.9,93.7 M262.4,91
			c1.8-1,3.5-2.3,3.7-4.6C263.7,87.5,263,89.1,262.4,91 M277.7,71.7c1.8-0.2,1.9-1.7,1.3-3.5C277.5,68.3,277.7,70.2,277.7,71.7
			 M199.1,38c0.9-0.8,1.5-1.7,1.6-2.5C200.1,35.9,198.4,36.7,199.1,38 M214.2,21.9c6.8-3.1,11.2-8.5,18.2-11.9
			c4.3-2.3,9.3-4.4,15-6.4c1.5-0.8,3.6-1,5.4-2.1C234.4,5.3,223.6,13,214.2,21.9 M268.8,80c-0.6-0.4,0.2-0.8,0.6-0.4
			c0.1,0.1,0.2,0.4,0.5,0.6c-0.2,0-0.3,0-0.4,0c-0.1,0-0.2,0-0.3,0C269,80.2,268.9,80.1,268.8,80 M264.7,70.6
			c-1.1-1.5,0.3-1.7,1.9-1.7c0.7,1.1,0.3,1.7-1.2,1.7C265.2,70.7,264.9,70.6,264.7,70.6 M268.2,66.4c0.9,1.5,0.6,2.3-1.2,2.3
			C267.6,68.3,266.8,66.2,268.2,66.4 M283.1,40c1.8,4-0.7,5.4-2.7,7.3c0.3,0.6,0.8,0.8,1,1.2c-2.5,4.2-5.4,8.1-7.7,12.7
			c0.8,0.8,0.4,1.2,0.6,1.9c-3.2,0.2-2.2,2.9-5.2,3.1c-0.7-1,0.2-1,0.8-1.5c-1.4-2.7,0.4-3.3,2.6-4c1.1-0.8,0-3.1,2-3.3
			c0.6-2.7,1.8-5.6,4.2-7.3c-1.3-4.2,4.1-5,1.9-9.2c0.6,0,0.1-0.6,1-0.6c0.9,0.2,0.1,0.6,0.3,1C282.9,41.5,281.9,40,283.1,40
			 M282.6,38c-0.4-1.9,1.6-2.5,3.1-2.7c0.1,1.5-0.5,2.8-2.3,2.8C283.1,38,282.9,38,282.6,38 M288.4,28.4c0.7,1-0.4,1-0.9,1.2
			C287.2,29,287.3,28,288.4,28.4 M250.9,26.5c5.2-1.7,9.6-3.3,16-4.2c0.5,4-1.4,6-2.5,9.2c-3,7.9-8,15.2-12.4,23.3
			c-12.3,20-27.2,38.1-42,57.4c-1.7,2.3-4.1,4.4-6.2,6.2c-4.6,4.6-8.6,8.7-14,12.5c-2.4,2.1-4.8,4.6-8.9,4.8
			c-2.6-4.6-2-7.3-3.3-11.2c0.5-2.1,0.9-4.6,0.8-7.1c0.3-1.2,0.3-2.7,0.3-4c0.6-2.5,0.1-5.4,0.8-7.5c0.5-1.2,1.3-2.3,1.6-4
			c0.3-1.2,0.3-2.7,0.9-4.2c0.4-1.5,2.3-2.3,1.5-4.6c2-2.5,3.5-5.6,4.9-8.5c1.2-3.3,2-6.7,3.5-9.4c1.9-2.7,4-5.4,5.8-7.9
			c1.8-2.9,3.8-5.4,6.1-7.7c2.3-3.1,8.2-4.4,3.6-11.9c-0.3-1.7,1.2-1.9,2.5-2.7c0.3-0.2,0.5-0.8,0.9-0.8c0.4-0.4,1.4-0.2,1.8-0.6
			c1.3-0.8,1.4-2.9,2.8-4c0.3-0.2,0.9-0.2,1.3-0.2c1.6-0.6,1.5-2.7,3.8-2.1c1.2,1.2-0.9,0.8-1.6,1c-0.4,1.5-1.9,2.3-2.4,3.3h-0.2
			c2.1,0.6,2.1-0.8,2.5-1.9c1.7-1.2,4.7-2.5,6.9-4c1.4-1.5,3-3.3,6.2-3.7c0.7-0.1,1.4-0.1,2.1,0c0.9,0,1.8,0.1,2.3-0.2
			c1.8-1,3.9-1.9,4.9-2.9c1.7-0.8,2.5-3.1,7.1-1.7c0.9-0.2,0.2-1.5,0.7-2.1c0.6-0.1,0.8,0.2,1,0.5c0.2,0.3,0.3,0.5,0.7,0.5
			C250.7,26.5,250.8,26.5,250.9,26.5 M221.2,102c2.5-4.2,5.8-7.9,8.7-12.1c6.4-7.9,11.8-16.6,17.4-25c1.9-2.7,3.3-5.6,5.1-8.5
			c2-2.9,3.4-5.8,5.1-8.9c1.8-2.5,2.7-6,4.8-8.5c0.4-0.8,1.3-1.2,1.7-1.7c1.9-2.1,2.5-5.4,3.9-8.3c0.7-0.8,1.2-2.3,1.7-4
			c0.8-2.3,0.6-6,6.8-4.2c1.2,2.7,0.4,5,0.3,7.1c-3.7,4.2-3.5,10-7,13.7c0.8,2.3-0.6,2.7-1.1,4c-0.7,1.2,0.4,2.7-1,3.3
			c-0.8,0.6-4.4,0.4-2.1,2.3c-1.9-0.2-1.9,0.8-2.2,1.5c0.4,0.4,0.5,0.3,0.5,0.2c0-0.1,0-0.2,0.2,0c0.6,1.2-0.8,0.6-1.4,1
			c-1.1,0.4-1.6,1.9-2.1,2.7c-0.9,0.8-0.5,2.5-0.8,3.3c-0.8,0.6-1.8,1-2.1,1.7c-0.5,0.8-0.7,1.7-1.5,2.1c-0.5,0.2-0.9-0.2-1.7-0.2
			c-6.2,6.9-9.9,16.6-17.6,22.7c-1.2,1-1.2,2.9-2.5,3.7c-0.5,0.2-1.4,0-1.9,0.4c-1.6,0.6-2.3,2.7-3.3,4.2c-2.1,2.7-4.4,5.4-6.7,8.3
			c-1,1.5-1.3,3.5-3.7,3.7C218.6,104.5,220.2,103.5,221.2,102 M260,0.5c0.9,1,2.6,0.8,3,2.1c0.9,1.5-1.8,1.9-3,1
			c-2.9,1.9-8.4,1.9-11.6,2.9c-1.8,0.6-3.2,1.7-4.7,2.3c-9.5,4.6-16.9,9.6-23.1,16c-0.7,0.8-1.8,1.5-2.9,2.3c-0.8,0.6-1,1.9-2,2.5
			c-0.6,0-1,0-1.6,0.2c-0.2,0.4-0.1,1.2-0.9,1.7c-3.6,3.5-7.4,7.1-11.2,11c-1.4-0.8-4.2-3.5-3.8-4.4c-0.6,0-0.4,0.4-1.3,0.4
			c-3.2-2.1-6.1-4-8.9-6c-1.5-0.6-4.4-1-5.6-0.6c-1.7,0.4-1.6,1.9-2.2,2.9c-3,7.1-7,13.5-9.8,21.2c-2.5,7.1-5.4,14.4-7.1,22.7
			c-2.3,12.1-4.7,24.1-3.4,38.5c0.6,4.8,1.7,11,4.8,16.2c3.5,5.6,7.8,8.3,12,11.2c6.4,3.7,15,6.7,21.2,4.8c4-1.2,7.2-3.5,11.6-4.4
			c2-0.2,3.6-2.7,4.7-3.5c0.9-0.4,2.3-0.4,3.4-0.8c2-1,2.8-3.1,4.1-4.4c1.1-0.8,2.6-1.2,3.6-2.3c0.6-0.4,0.4-1,1-1.5
			c1.1-0.4,2.1-0.4,2.7-0.8c2.2-2.1,3.1-5.2,5.9-6.2c0.3-2.1,1.7-3.5,4.6-4.2c0.6-2.9,3.2-4.4,5.3-6.2c1.7-1.9,2.4-4.8,3.9-6.7
			c1-1,2.7-1.5,3.5-2.3c0.6-0.6,0.5-1.7,0.8-2.3c1.2-1,2.2-1.5,1.8-2.9c1.3-1.2,3.2-2.1,3.3-4.2c-0.4,0-1-0.4-1.4-0.8
			c-0.1-2.9,3.3-3.3,2.9-6c3.1-2.3,4-6.2,8.2-8.1c0.4,0.4-0.1,1.2,0.8,1.2c2.2,0,1.1-1.6,1.8-2.9c0.1,0,0.3,0,0.4,0
			c0.7-0.2,0.4-1-0.1-1.7c0.9,0.2,2.6-0.2,2.3-1.2c-0.5-0.1-0.6,0-0.7,0.1c-0.1,0.1-0.1,0.3-0.7,0.1c-0.6-0.8,0.2-0.8,0.7-1.2
			c0.5,0.2,0.2,0.8,1.1,1c1-0.6,1.8-1.5,1.6-3.3c-0.2-0.2-0.5-0.2-0.7-0.2c-0.3,0-0.7,0-1-0.5c1.4-0.2,1.6-1,1.2-2.3
			c2.7-0.4,2.8-3.3,4.7-4.8c0.4,0,1.1,1.5,1.3,1c0.3-0.6,1.2-0.6,0.7-1.2c-0.1-0.3-0.4-0.3-0.6-0.2c-0.2,0.1-0.5,0.1-0.6-0.2
			c-0.2-2.3,3.6-2.1,2.5-4.6c2.9-0.8,3.2-3.3,5-5c-0.4-0.4-0.6-0.8-1-1.2c3.2-7.1,5.9-14.8,9.5-21.4c-0.5-0.6-0.1-0.6-0.8-1.2
			c0.1-0.6,0.2-1.5,0.4-2.3c0-0.4-0.8-0.8-1-1.2c0.6-0.4-0.6-1.9-1.3-3.3c-1-2.3-0.5-2.5-3.2-4.4c0.1-0.2,1.3-0.2,0.3-0.6
			c-2.3-1-3.7-3.1-5.9-4.8c-3.5-3.1-6.6-5.6-10.1-7.7c-1.3-2.1-5.4-3.3-7.5-2.5c-1.8-1.8-4-4.8-6.8-4.8C260.1,0.5,260,0.5,260,0.5"
			/>
	</defs>
	<clipPath id="SVGID_5_">
		<use xlink:href="#SVGID_4_"  overflow="visible"/>
	</clipPath>
	
		<linearGradient id="SVGID_6_" gradientUnits="userSpaceOnUse" x1="1" y1="166.4869" x2="2" y2="166.4869" gradientTransform="matrix(0 -149.5348 -149.5348 0 25122.8613 299.5682)">
		<stop  offset="0" style="stop-color:#559241"/>
		<stop  offset="3.736260e-03" style="stop-color:#559241"/>
		<stop  offset="1" style="stop-color:#68AD44"/>
	</linearGradient>
	<rect x="158.6" y="0.5" clip-path="url(#SVGID_5_)" fill="url(#SVGID_6_)" width="137.4" height="150.8"/>
</g>
<g>
	<defs>
		<path id="SVGID_7_" d="M308.3,96.8c0.4,0.4,0.2,0.4,0.1,0.6c0.7-0.2,1.6-0.6,2.5-0.4c-0.2-0.4-0.4-0.8,0-0.8
			c0.9,0.2,2,0.4,2.8,0.2c-0.7-0.6,0.5-0.6-0.3-1C311.7,95.8,309.5,96,308.3,96.8 M317.9,92.1C317.9,92,317.9,92,317.9,92.1
			C317.9,92,317.9,92,317.9,92.1 M375.2,66.2c1.4-1.5,2-3.3,2.2-5.6c1.4-0.6,1.6-1.9,1.4-3.7c-0.3-0.2-0.7-0.2-0.7-0.2
			C377.9,60.4,375.4,62.5,375.2,66.2 M344.9,84.1c0.9,0.6,0.2,1.9-0.1,2.5c-2.7,0-5.8,0-7,1.5c-2.8-0.4-4.3,0.2-5.7,0.8
			c-1.3,0.5-2.5,1.1-4.7,0.9c-0.6,0-0.3,0.6-0.5,0.6c-1.8-0.3-3.2,0.1-4.4,0.5c-1.3,0.4-2.4,0.8-3.8,0.5c-0.3,0.6,0.7,1.5,0.3,2.1
			c-0.8,0.4-1,0.6-2.2,0.6c0.1-0.2-0.3-0.6-0.5-1h0.8c0.6,0,0.6-0.9,0.7-1c-0.5,0.2-1.4,0-2.4,0l-1.2,1c-0.5-0.2-1.1-0.2-1.3-0.2
			c-1.2,0-1.5,1.2-3.1,0c0-0.8,0.2-0.8,0.5-1.2c3.1,0.4,5.5-0.2,6.6-1.5c3.3-0.4,6.7-2.1,11-2.7c0.6,0,0,0.4,0.1,0.6
			c0.8,0.3,1.1,0,1.5-0.4c0.3-0.4,0.7-0.7,1.8-0.3c2-1.9,5.8-1.9,9-2.1c0.3,0.1,0.4,0,0.6,0c0.2-0.1,0.4-0.2,1,0.2
			c0.5-0.6,1.2-1,3-0.6C345,84.8,344.7,84.1,344.9,84.1 M299.1,79.1c-1.7,1.6-3.3,3.1-5.9,3.9C295,81.6,296.8,80.1,299.1,79.1
			 M310.3,79.3c0.3-0.2,0.6,0,0.9-0.2c0.5-0.7,1.1-1.2,1.6-1.8c-0.3,2.2-3.9,3.3-4.3,5.9c-2.6,0.6-3.5,3.3-6.1,3.3
			C303.8,83.3,308.7,82.7,310.3,79.3 M322.9,72.5c0,0,0.6,0,0.9,0.6c-1.4,0.2-2.1,1.2-3.4,1.7C320.4,73.3,322.3,73.3,322.9,72.5
			 M314.2,74.8c0.6,0,0.8,0,1.5-0.4c0.7-1.2,3.2-1.7,4.1-2.9c0,1.9-2.9,2.3-3.6,4c-1.3,0.6-2.1,1.6-3.2,1.9
			C313.5,76.6,314,75.9,314.2,74.8 M372.5,76c0.5-2.5,1-5,2.7-6.7c2.6-0.2,5.9-0.6,9.1,1c4-0.2,7.6,0.4,12.2,1
			c-0.1,0.4-0.5,0.4-0.9,0.4c-0.2,0-0.4,0-0.6,0.1c1.9,0.6,3.5,1.2,5.3,1.7c-1.3,1.2-3.2,1-5,1.2c-2.6,0.2-5.2,0.8-8.1,0.8
			c-3.7,0.2-7.1,0.6-10.8,0.6C375.3,76.2,373.9,76.2,372.5,76 M372,56.5l0.1,0.2c0,1.5-0.1,2.9-1.4,3.7c0,1.2-0.1,2.5-1.3,3.1
			C369.8,60.6,371.2,58.8,372,56.5 M312.2,82.3c0.4-0.4,0.5-1.2,1.1-1.2c0.1-1,1.2-1.5,1.6-1.9c1.1-0.8,3-1.2,4.4-2.1
			c1.6-1,3.3-2.3,4.5-3.3c1.3-1.2,3.7-1.9,5-3.1c3.4-1.2,5.9-4.4,9.1-6.9c3.5-2.7,7.3-5.2,10.3-8.3c0.8-1,1.6-1.5,3.1-1.9
			c1.7-0.8,2.4-1.9,4.4-2.5l0.1,0.2c1,1.7,0,2.7-0.5,4c-3.1,7.3-5,15-8.2,22.5c-0.2,0.8-0.2,3.7-1.1,4c-0.7,0.8-3.9,0.6-5.2,0.8
			c-5.2,0.8-11.1,1-16,2.1c0.1-1.2,1.9-0.8,2.8-1l4.8-0.8c2.1-0.4,3.2-1,5.3-1.5c1.6-0.2,3.7,0,4.3-1c-1.1-0.2-2,0-2.8,0.3
			c-0.7,0.2-1.5,0.4-2.3,0.3c-0.8,0-1.3-0.2-2-0.2c-1.2,0-2.7,0.4-4.8,0.8c-1.6,0.2-3.1,0.4-4.2,0.8c-1.4,0-2.1,0.4-3.9,0.4
			c-2.1,0-4.1,1-6.3,1.2c-0.3-0.2-0.9-0.2-1.9,0c-1.5,0.4-3.8,1.2-6.3,1.2C308.6,83.3,311.3,83.3,312.2,82.3 M373.6,50
			c1,0,0.7-0.6,1.4-1h0.2c0,2.3-0.9,3.5-2,4.6C373.7,52.5,372.7,50.8,373.6,50 M377.5,50c-0.1-1.7,0.6-2.3,1.1-2.9
			c0.4,0,0.5,0.2,0.5,0.2c0.1,1,0.3,1.5,0.5,2.1c-1,0.6-0.9,2.1-1.8,2.9c-1.4,3.7-3.6,7.5-4.4,11.6c-0.1,0.2-0.4,0.8-1.1,0.8
			c-0.5,1.2,0.2,2.7-1.6,2.9C372.7,61.7,375.4,55.8,377.5,50 M378.5,0.1c-0.3,0.6,0,1.9-0.6,2.3c-0.4,0.8-0.2,1.9-1.2,1.9
			c0.4,1.7-1.3,1.2-1.5,2.5c-0.4,1.9-2.9,3.5-4.3,5.8c-4.9,5.4-10.7,10.8-16.3,15.2c-1.3,0.8-1.6,1.9-2.4,2.9
			c-1.2,0.6-2.1,1.7-2.8,2.5l-5.9,4.6c-3.4,3.3-6.6,6.9-10.3,10.4c-3.3,3.5-7.7,6.2-11.4,9.4c-2.9,2.7-5.9,4.8-8.8,7.1l-2.8,2.5
			c-0.4,0.4-0.5,0.6-0.2,1.5c-0.8,0.6-2.3,0.8-2.3,2.3c-1.2,0-1,1-2.4,1c-2.6,2.5-5.4,5-8.3,6.9c-1.4,1-2.5,2.7-3.9,3.3
			c-2.1,1.7-5,3.1-6.9,5.4c2.6-1,4.6-2.6,6.5-4.2c-2,2.4-5,4.2-8.5,6.2c0.2-1,1.6-1.5,2-2.1c-5.3,1.7-8.1,5.4-13.4,7.9
			c-3.6,1.2-7.2,3.3-10.8,5c-1.4,0.6-1.9,1.7-3.5,1.9l-2.7,0.4c-0.8,0-2-0.4-2.3,0c-0.5,0.8,1.4,2.3,1.8,3.1
			c-3.4,0.6-0.7,3.5,1.8,5.4c1.2,0.8,4.3,2.3,5.2,2.9c0.5,0.2,2.4,1.2,3.3,1.2c4,1.5,5.5-0.2,8.4-1.2c0.8-0.6,1.4-1,2.3-1.2
			c3.1-1,5.6-3.3,7.8-4.8c0.6-0.4,1.6-0.6,2.2-0.6c-0.1-0.6,0.2-1,0.4-1c7.1-3.1,14.2-5.8,20.5-9.2c-0.3-0.6-0.4-0.8,0.2-1l5-1.7
			c1.4-0.6,2.6-1.7,4.6,0c-1.1,0.2-2.2,0.2-2.6,0.6c2.5,0,3.5-0.4,4.5-1c0.9-0.2,1.6-0.2,2-0.6c1.1-0.4,2.2-0.6,3.5-1.5
			c0.6-0.4,2.5,0,2.8-1c2.3,0.4,3-0.2,3.6-1.2c4.3,0,7.1-1.7,10.3-2.3c0.5,0.6-0.1,1,0.7,1c0.8,0,1.9-0.4,2.5-0.4
			c-1.8,8.3-3.7,18.3-4.8,27.3l-0.5,7.1c-1,2.9-0.4,7.3-0.7,10.8c0.3,5.8,0.6,10.6,2.3,16.6c3.3,2.3,10,9.4,13.2,11.6
			c2.3,0,5.9,6.2,7.4,5.4c1.2-0.6-0.4-7.7-0.3-9.4c0-1.5-0.6-7.3-0.3-8.9c0.2-1.9-0.2-3.7-0.2-5.4c0-0.4,0.5-0.6,0.5-1.2
			c-0.1-3.3,0.1-6.7,0.6-9.2c0.2-1.9,0.3-3.5,0.1-5.2c0.9-2.1,1.4-3.7,1-6c-0.2-2.7,0.8-4.6,0.3-7.1c1.9-7.7,3.4-15.8,4.4-23.5
			c2.5-1.2,6.1-1.2,8.9-2.3c2.2-0.6,4.5-0.6,6.3-1.2c0.3-0.6,0.7-0.8,1.4-1c2.4-0.2,4.9-0.2,7.1-1.2c0.2,0,0.1-0.2,0.5-0.2
			c1.7,0,3.4-1.2,5.9-1c0.6-0.4,1.5-0.3,2.5-0.2c0.7,0,1.3,0.1,2,0l1.4-1c1,0,2-0.6,2.8-0.6c3.7-0.4,6.4-1.9,10.9-1.9
			c-1.4,0.6-3.7,0-3.7,1.5c2.3,0,5.3-0.2,7.1-0.8c1.8,0.8,1.8-0.6,3-0.6h1.4c0.6,0,2.6-0.2,4.3,0c0.6,0-1-0.8-0.4-0.8
			c1.3,0.2,1.7,0.2,2.3,0c-0.1-2.1-1.2-2.7-2.6-4c-0.2,0-0.5-0.6-1.4-1.2c-1.8-1.7-2.6-2.9-3.7-4.4c-2.3,0.8-3.9-1.2-5-1.9
			c-1-0.4-1.2,0-2.1,0c-0.3-0.2-0.7-0.6-0.9-0.6c-3.6-1-8.5-0.6-12.1-0.6c-9.8-0.6-20.8-0.4-27.5,0.8c-0.3-0.2-0.6-0.8-0.8-1.2
			c-1,0-0.4,1.5-1.4,1l1.3-3.1c0.1-2.9,2.7-4,2.6-6.9c0.3-0.6,0.6-1.5,0.7-1.7l-0.1-1.7c2.9-1.9,3-6,5.2-8.1c-0.4-0.4-0.3-1-0.3-1.5
			c-0.8,0.4-1.2,2.7-2.8,2.1c-0.3-1,1-1.9,0.8-3.7c1-0.6,0.9-2.1,0.8-3.7c0.7-1.2,2.6-2.5,1.2-4.2c0.9-1.2,0.9-3.3,2.4-3.7
			c0.5-0.2,0.2-0.8,0.6-1.5c1.6-0.6,1.9-2.1,2.7-2.7c0.5-0.2,0.7-0.2,1.2-0.6c0.8,0,1.5-0.8,2.6-1.5c1.5-1.7,2.2-2.9,3.4-4.8
			c0.3-1,1-2.3,0.7-2.9c0.6-1.5-2.4-4.8-3.5-5.8c-1-1.2-2.9-2.7-3.6-4.2c-1.2-2.1-6.6-5.8-8.8-7.1C380.4,0,380.2,0,379.9,0
			C379.5,0,378.9,0.1,378.5,0.1"/>
	</defs>
	<clipPath id="SVGID_8_">
		<use xlink:href="#SVGID_7_"  overflow="visible"/>
	</clipPath>
	
		<linearGradient id="SVGID_9_" gradientUnits="userSpaceOnUse" x1="1" y1="166.4193" x2="2" y2="166.4193" gradientTransform="matrix(0 -167 -167 0 28133.4688 334)">
		<stop  offset="0" style="stop-color:#559241"/>
		<stop  offset="3.736260e-03" style="stop-color:#559241"/>
		<stop  offset="1" style="stop-color:#68AD44"/>
	</linearGradient>
	<rect x="251.9" clip-path="url(#SVGID_8_)" fill="url(#SVGID_9_)" width="179.1" height="167.8"/>
</g>
</svg>
