<svg width="260" height="260" viewBox="0 0 260 260" version="1.1" xmlns="http://www.w3.org/2000/svg" xmlns:xlink="http://www.w3.org/1999/xlink">
<title>z-logo</title>
<desc>Z Logo</desc>
<g id="Canvas" transform="translate(196 260)">
<clipPath id="clip-0" clip-rule="evenodd">
<path d="M -196 -260L 64 -260L 64 0L -196 0L -196 -260Z" fill="#FFFFFF"/>
</clipPath>
<g id="z-logo" clip-path="url(#clip-0)">
<g id="Vector">
<use xlink:href="#path0_fill" transform="translate(-185.167 -260)" fill="#68AD45"/>
</g>
</g>
</g>
<defs>
<path id="path0_fill" d="M 230.809 176.209L 228.445 176.209C 230.809 178.573 234.473 179.873 234.473 181.055C 234.473 184.718 227.145 183.536 223.6 183.536L 222.3 182.236L 223.6 182.236C 223.6 181.055 227.145 181.055 227.145 179.873C 217.455 177.391 202.918 179.873 193.109 178.573C 184.718 178.573 177.391 183.536 170.064 182.236C 171.245 182.236 171.245 182.236 171.245 181.055C 167.7 181.055 159.191 181.055 157.891 183.536L 154.227 183.536L 154.227 182.236C 149.382 183.536 143.355 185.9 139.691 185.9C 133.664 185.9 128.818 185.9 123.855 188.382C 121.491 189.564 116.645 189.564 114.164 190.745C 109.318 194.409 98.3273 192.045 97.1455 196.891L 111.8 193.227C 110.5 194.409 106.836 194.409 105.655 196.891L 117.827 193.227C 116.645 195.591 112.982 194.409 110.5 195.591C 103.291 199.255 91.1182 201.736 83.7909 206.582C 82.6091 207.764 81.3091 210.245 80.1273 210.245C 77.7636 211.427 72.9182 211.427 70.4364 213.909C 69.2545 215.091 67.9545 217.455 65.5909 218.755L 54.6 225.964C 48.5727 232.109 50.9364 234.473 44.9091 239.436C 42.4273 241.8 37.5818 241.8 35.2182 245.464C 35.2182 245.464 27.8909 251.491 20.5636 260L 17.0182 256.455C 21.8636 246.645 24.2273 233.291 25.4091 236.955C 29.0727 244.282 26.7091 233.291 27.8909 228.445C 27.8909 225.964 30.3727 224.782 31.5545 223.6C 35.2182 219.936 36.4 211.427 40.0636 206.582C 46.0909 196.891 49.7545 185.9 55.9 177.391C 59.4455 170.064 64.4091 164.036 67.9545 158.009C 69.2545 155.527 72.9182 153.045 72.9182 149.5C 71.6182 149.5 72.9182 150.682 70.4364 149.5L 71.6182 149.5C 71.6182 148.2 72.9182 147.018 74.1 145.836C 74.1 146.191 73.8636 146.427 73.6273 146.664C 74.8091 145.6 76.8182 145.127 77.7636 143.355C 78.9455 140.991 80.1273 137.327 81.3091 134.845C 82.6091 133.664 83.7909 133.664 84.9727 132.482C 87.4545 128.818 89.8182 123.973 92.3 120.309C 93.4818 119.127 94.7818 119.127 95.9636 117.827C 98.2091 113.455 102.345 108.964 105.891 104.591C 103.764 106.482 101.4 107.545 99.6273 109.318C 97.1455 111.8 97.1455 114.164 94.7818 116.645C 93.4818 117.827 91.1182 116.645 91.1182 117.827C 89.8182 119.127 89.8182 120.309 88.6364 121.491C 82.6091 127.636 76.4636 134.845 71.6182 142.173C 69.2545 147.018 64.4091 150.682 61.9273 155.527C 53.4182 168.882 46.0909 182.236 38.8818 195.591C 33.9182 204.1 21.8636 223.6 17.0182 232.109C 14.5364 235.773 15.7182 240.618 9.69091 242.982C 9.69091 236.955 17.0182 232.109 19.3818 227.264C 25.4091 216.273 37.5818 196.891 43.7273 185.9C 60.7455 155.527 80.1273 125.155 105.655 97.1455C 115.345 86.2727 127.518 76.5818 137.209 65.5909L 131.182 66.7727C 130 68.0727 125.155 68.0727 121.491 69.2545C 117.827 70.4364 114.164 71.7364 111.8 72.9182L 103.291 74.1C 97.1455 77.7636 89.8182 80.2455 84.9727 82.6091L 72.9182 85.0909C 72.9182 83.7909 69.2545 85.0909 66.7727 85.0909C 63.1091 87.4545 54.6 87.4545 52.2364 89.9364C 55.9 105.655 52.2364 119.127 53.4182 133.664C 53.4182 136.145 55.9 149.5 53.4182 150.682C 49.7545 155.527 26.7091 136.145 21.8636 130C 23.0455 122.673 21.8636 115.464 21.8636 106.955C 21.8636 99.6273 24.2273 94.7818 23.0455 87.4545C 17.0182 87.4545 13.3545 85.0909 7.20909 82.6091C 3.54545 80.2455 2.36364 77.7636 0 74.1C 2.36364 69.2545 3.54545 65.5909 9.69091 61.9273L 24.2273 55.9L 24.2273 48.5727C 27.8909 37.7 25.4091 23.0455 30.3727 10.8727C 31.5545 7.32727 29.0727 2.36364 33.9182 0C 36.4 4.84545 38.8818 17.0182 38.8818 20.6818C 38.8818 21.8636 37.5818 23.0455 37.5818 25.5273C 37.5818 27.8909 40.0636 29.1909 40.0636 31.5545C 40.0636 35.2182 38.8818 37.7 38.8818 41.2455C 40.0636 47.3909 41.2455 51.0545 43.7273 57.0818C 44.9091 61.9273 44.9091 66.7727 44.9091 70.4364C 52.2364 70.4364 63.1091 68.0727 67.9545 64.4091L 75.2818 63.2273C 81.3091 60.7455 89.8182 58.2636 94.7818 55.9L 100.809 54.7182C 108.136 51.0545 120.309 49.7545 127.518 44.9091L 134.845 43.7273C 140.873 40.0636 151.864 38.8818 157.891 35.2182C 161.555 35.2182 178.573 31.5545 183.418 29.1909C 189.564 26.7091 196.773 24.3455 204.1 23.0455C 210.127 26.7091 210.127 24.3455 216.273 30.3727C 216.273 32.8545 221.118 35.2182 222.3 37.7C 227.145 47.3909 223.6 47.3909 211.427 49.7545C 210.127 51.0545 202.918 54.7182 199.255 54.7182L 190.745 54.7182C 183.418 59.5636 174.909 63.2273 168.882 69.2545C 137.209 95.9636 110.5 122.673 92.3 154.345C 87.4546 161.555 81.3091 167.7 76.4636 173.727C 75.2818 176.209 75.2818 179.873 74.1 183.536C 72.9182 187.082 67.9545 189.564 67.9545 194.409C 69.2545 193.227 77.7636 188.382 80.1273 188.382C 81.3091 188.382 82.6091 189.564 82.6091 189.564C 97.1455 185.9 114.164 182.236 130 178.573C 134.845 177.391 142.173 177.391 145.718 176.209C 150.682 175.027 171.245 172.545 172.545 168.882C 170.064 168.882 167.7 168.882 165.218 167.7C 166.4 167.7 168.882 166.518 168.882 166.518C 164.036 167.7 156.709 165.218 151.864 165.218C 142.173 164.036 132.364 165.218 122.673 165.218C 116.645 165.218 110.5 166.518 104.473 165.218C 116.645 161.555 131.182 161.555 144.536 161.555C 149.382 161.555 154.227 160.373 160.373 160.373L 182.236 160.373C 191.927 160.373 205.282 159.191 213.791 161.555C 218.636 162.855 221.118 166.518 225.964 170.064L 228.445 170.064L 229.627 171.364C 229.627 172.545 229.627 173.727 230.809 176.209ZM 24.2273 75.2818C 23.0455 71.7364 24.2273 68.0727 24.2273 63.2273L 20.5636 63.2273C 19.3818 65.5909 15.7182 65.5909 14.5364 68.0727C 12.0545 69.2545 10.8727 72.9182 8.50909 75.2818L 9.69091 76.5818L 14.5364 76.5818C 17.0182 77.7636 20.5636 76.5818 24.2273 75.2818ZM 120.309 87.4545L 119.009 87.4545C 119.009 88.7545 117.827 89.9364 117.827 91.1182C 117.827 89.9364 119.009 88.7545 120.309 87.4545ZM 112.982 95.9636C 111.091 96.9091 109.909 99.3909 108.373 101.518C 109.318 99.2727 109.555 97.1455 112.982 95.9636ZM 127.518 97.1455L 131.182 95.9636L 128.818 95.9636L 127.518 97.1455ZM 101.991 131.182C 102.582 131.773 102.818 131.773 103.055 131.891C 102.7 132.364 102.464 132.718 102.345 133.191C 101.4 133.191 100.809 133.664 100.809 133.664L 101.991 133.664L 102.345 133.191C 102.818 133.191 103.527 133.191 104.473 133.664C 103.764 132.245 103.409 132.009 103.055 131.891C 105.891 128.227 112.745 123.382 111.8 120.309L 110.5 120.309C 111.8 116.645 116.645 116.645 117.827 112.982L 116.645 112.982C 120.309 111.8 121.491 109.318 123.855 108.136C 122.673 108.136 121.491 109.318 120.309 109.318C 121.491 106.955 123.855 105.655 127.518 104.473C 126.336 103.291 126.336 103.291 126.336 102.109L 123.855 102.109C 122.673 108.136 116.645 111.8 112.982 115.464C 108.136 120.309 105.655 125.155 101.991 131.182ZM 93.4818 133.664L 91.1182 133.664C 91.1182 134.845 89.8182 136.145 88.6364 136.145L 89.8182 136.145C 91.1182 134.845 92.3 134.845 93.4818 133.664ZM 98.3273 140.991C 95.9636 140.991 97.1455 142.173 95.9636 140.991L 98.3273 140.991ZM 94.7818 143.355L 93.4818 143.355C 92.3 144.655 89.8182 145.836 88.6364 148.2L 92.3 147.018C 92.3 145.836 93.4818 144.655 94.7818 143.355ZM 80.1273 151.864L 77.7636 151.864C 76.4636 153.045 76.4636 154.345 75.2818 154.345L 76.4636 154.345C 77.7636 154.345 78.9455 153.045 80.1273 151.864ZM 88.6364 155.527L 83.7909 156.709C 83.7909 158.955 82.3727 160.964 80.4818 162.855L 81.3091 162.855C 81.3091 161.555 83.7909 162.855 84.9727 161.555C 84.9727 161.555 84.9727 160.373 83.7909 160.373C 84.9727 158.009 87.4545 156.709 88.6364 155.527ZM 74.1 159.191C 72.9182 160.373 72.9182 160.373 74.1 160.373C 74.1 159.782 74.4545 159.073 74.6909 158.482C 75.1636 157.891 75.2818 157.536 75.2818 156.709C 75.2818 157.3 75.0455 157.891 74.6909 158.482C 74.5727 158.6 74.4545 158.836 74.1 159.191ZM 68.3091 178.1C 68.0727 177.627 67.9545 177.864 67.9545 178.573C 68.4273 179.045 68.6636 179.164 68.9 179.164C 69.0182 179.4 69.0182 179.518 69.2545 179.873C 69.2545 179.045 69.1364 179.282 68.9 179.164C 68.7818 179.045 68.6636 178.809 68.5455 178.573L 70.4364 178.573C 70.4364 176.209 72.9182 177.391 74.1 176.209C 74.1 175.027 72.9182 173.727 72.9182 172.545C 74.1 171.364 76.4636 171.364 77.7636 170.064C 80.1273 167.7 76.4636 164.036 81.3091 164.036C 80.7182 163.445 80.3636 163.091 80.4818 162.973C 78.2364 165.1 75.4 166.991 72.9182 168.882C 70.5545 171.245 70.3182 175.618 68.3091 178.1ZM 65.5909 181.055C 66.7727 182.236 66.7727 182.236 69.2545 181.055L 67.9545 179.873L 65.5909 181.055ZM 210.127 182.236L 216.273 181.055C 215.091 183.536 211.427 182.236 207.764 183.536L 210.127 182.236ZM 157.891 183.536L 161.555 183.536C 160.373 182.236 160.373 183.536 157.891 183.536ZM 64.4091 185.9L 65.5909 185.9C 64.4091 183.536 64.4091 183.536 65.5909 183.536L 63.1091 183.536C 64.4091 184.718 63.1091 184.718 64.4091 185.9ZM 179.755 187.082C 179.755 188.382 178.573 188.382 177.391 188.382L 172.545 188.382L 172.545 187.082C 173.727 187.082 178.573 185.9 179.755 187.082ZM 132.364 192.045C 133.664 193.227 137.209 192.045 139.691 190.745C 138.509 190.745 134.845 192.045 132.364 192.045ZM 91.1182 119.127L 92.3 119.127C 91.1182 121.491 89.8182 121.491 89.8182 121.491C 89.8182 120.309 91.1182 120.309 91.1182 119.127Z"/>
</defs>
</svg>
